<svg width="600" height="400" xmlns="http://www.w3.org/2000/svg">
<rect width="100%" height="100%" fill="#f9f9f9" />
<text x="300.0" y="30" text-anchor="middle" font-family="Arial" font-size="18" font-weight="bold">UNO_PRECISE: Voltage Response</text>
<line x1="60" y1="340.0" x2="540" y2="340.0" stroke="#ddd" stroke-dasharray="4" />
<text x="50" y="345.0" text-anchor="end" font-family="Arial" font-size="10">1.7</text>
<line x1="60" y1="270.0" x2="540" y2="270.0" stroke="#ddd" stroke-dasharray="4" />
<text x="50" y="275.0" text-anchor="end" font-family="Arial" font-size="10">2.3</text>
<line x1="60" y1="200.0" x2="540" y2="200.0" stroke="#ddd" stroke-dasharray="4" />
<text x="50" y="205.0" text-anchor="end" font-family="Arial" font-size="10">3.0</text>
<line x1="60" y1="130.00000000000003" x2="540" y2="130.00000000000003" stroke="#ddd" stroke-dasharray="4" />
<text x="50" y="135.00000000000003" text-anchor="end" font-family="Arial" font-size="10">3.6</text>
<line x1="60" y1="60.0" x2="540" y2="60.0" stroke="#ddd" stroke-dasharray="4" />
<text x="50" y="65.0" text-anchor="end" font-family="Arial" font-size="10">4.2</text>
<line x1="60.0" y1="60" x2="60.0" y2="340" stroke="#ddd" stroke-dasharray="4" />
<text x="60.0" y="360" text-anchor="middle" font-family="Arial" font-size="10">-10.0</text>
<line x1="180.0" y1="60" x2="180.0" y2="340" stroke="#ddd" stroke-dasharray="4" />
<text x="180.0" y="360" text-anchor="middle" font-family="Arial" font-size="10">20.0</text>
<line x1="300.0" y1="60" x2="300.0" y2="340" stroke="#ddd" stroke-dasharray="4" />
<text x="300.0" y="360" text-anchor="middle" font-family="Arial" font-size="10">50.0</text>
<line x1="420.0" y1="60" x2="420.0" y2="340" stroke="#ddd" stroke-dasharray="4" />
<text x="420.0" y="360" text-anchor="middle" font-family="Arial" font-size="10">80.0</text>
<line x1="540.0" y1="60" x2="540.0" y2="340" stroke="#ddd" stroke-dasharray="4" />
<text x="540.0" y="360" text-anchor="middle" font-family="Arial" font-size="10">110.0</text>
<line x1="60" y1="340" x2="540" y2="340" stroke="black" stroke-width="2" />
<line x1="60" y1="60" x2="60" y2="340" stroke="black" stroke-width="2" />
<polyline points="60.0,60.0 64.0,60.0 68.0,65.49797015042463 72.0,65.49797015042463 76.0,65.49797015042463 80.0,70.99594030084927 84.0,70.99594030084927 88.0,70.99594030084927 92.0,76.49391045127379 96.0,76.49391045127379 100.0,81.99188060169843 104.0,81.99188060169843 108.0,81.99188060169843 112.0,87.35586106807352 116.0,87.35586106807352 120.0,92.85383121849816 124.0,92.85383121849816 128.0,98.35180136892271 132.0,98.35180136892271 136.0,103.84977151934734 140.0,103.84977151934734 144.0,109.34774166977195 148.0,109.34774166977195 152.0,114.84681009629526 156.0,114.84681009629526 160.0,120.34478024671989 164.0,120.34478024671989 168.0,125.8427503971445 172.0,125.8427503971445 176.0,131.3407205475691 180.0,131.3407205475691 184.0,136.83869069799368 188.0,136.83869069799368 192.0,142.33666084841832 196.0,142.33666084841832 200.0,147.83463099884293 204.0,153.3326011492675 208.0,153.3326011492675 212.0,158.8305712996921 216.0,158.8305712996921 220.0,164.3285414501167 224.0,164.3285414501167 228.0,169.82760987664005 232.0,169.82760987664005 236.0,175.32558002706466 240.0,175.32558002706466 244.0,180.82355017748924 248.0,180.82355017748924 252.0,186.32152032791387 256.0,191.81949047833845 260.0,191.81949047833845 264.0,197.18347094471358 268.0,197.18347094471358 272.0,202.6814410951382 276.0,202.6814410951382 280.0,208.1794112455628 284.0,208.1794112455628 288.0,213.6773813959874 292.0,213.6773813959874 296.0,219.17535154641197 300.0,219.17535154641197 304.0,224.6744199729353 308.0,224.6744199729353 312.0,230.17239012335995 316.0,230.17239012335995 320.0,230.17239012335995 324.0,235.67036027378452 328.0,235.67036027378452 332.0,241.16833042420916 336.0,241.16833042420916 340.0,246.66630057463374 344.0,246.66630057463374 348.0,252.16427072505834 352.0,252.16427072505834 356.0,252.16427072505834 360.0,257.662240875483 364.0,257.662240875483 368.0,263.16021102590753 372.0,263.16021102590753 376.0,268.65818117633216 380.0,268.65818117633216 384.0,268.65818117633216 388.0,274.15615132675674 392.0,274.15615132675674 396.0,279.6552197532801 400.0,279.6552197532801 404.0,279.6552197532801 408.0,285.15318990370474 412.0,285.15318990370474 416.0,285.15318990370474 420.0,290.6511600541293 424.0,290.6511600541293 428.0,290.6511600541293 432.0,296.1491302045539 436.0,296.1491302045539 440.0,296.1491302045539 444.0,301.6471003549785 448.0,301.6471003549785 452.0,301.6471003549785 456.0,307.01108082135363 460.0,307.01108082135363 464.0,307.01108082135363 468.0,312.5090509717782 472.0,312.5090509717782 476.0,312.5090509717782 480.0,318.00702112220284 484.0,318.00702112220284 488.0,318.00702112220284 492.0,318.00702112220284 496.0,323.5049912726274 500.0,323.5049912726274 504.0,323.5049912726274 508.0,329.002961423052 512.0,329.002961423052 516.0,329.002961423052 520.0,329.002961423052 524.0,334.5020298495754 528.0,334.5020298495754 532.0,334.5020298495754 536.0,334.5020298495754 540.0,340.0" fill="none" stroke="red" stroke-width="2" />
<text x="300.0" y="390" text-anchor="middle" font-family="Arial" font-size="12">Input Temperature (C)</text>
<text x="20" y="200.0" text-anchor="middle" font-family="Arial" font-size="12" transform="rotate(-90 20,200.0)">Filtered Output Voltage (V)</text>
</svg>