<svg width="600" height="400" xmlns="http://www.w3.org/2000/svg">
<rect width="100%" height="100%" fill="#f9f9f9" />
<text x="300.0" y="30" text-anchor="middle" font-family="Arial" font-size="18" font-weight="bold">UNO_PRECISE: Translation Accuracy</text>
<line x1="60" y1="340.0" x2="540" y2="340.0" stroke="#ddd" stroke-dasharray="4" />
<text x="50" y="345.0" text-anchor="end" font-family="Arial" font-size="10">-9.5</text>
<line x1="60" y1="270.0" x2="540" y2="270.0" stroke="#ddd" stroke-dasharray="4" />
<text x="50" y="275.0" text-anchor="end" font-family="Arial" font-size="10">3.1</text>
<line x1="60" y1="200.0" x2="540" y2="200.0" stroke="#ddd" stroke-dasharray="4" />
<text x="50" y="205.0" text-anchor="end" font-family="Arial" font-size="10">15.6</text>
<line x1="60" y1="129.99999999999997" x2="540" y2="129.99999999999997" stroke="#ddd" stroke-dasharray="4" />
<text x="50" y="134.99999999999997" text-anchor="end" font-family="Arial" font-size="10">28.2</text>
<line x1="60" y1="60.0" x2="540" y2="60.0" stroke="#ddd" stroke-dasharray="4" />
<text x="50" y="65.0" text-anchor="end" font-family="Arial" font-size="10">40.7</text>
<line x1="60.0" y1="60" x2="60.0" y2="340" stroke="#ddd" stroke-dasharray="4" />
<text x="60.0" y="360" text-anchor="middle" font-family="Arial" font-size="10">-10.0</text>
<line x1="180.0" y1="60" x2="180.0" y2="340" stroke="#ddd" stroke-dasharray="4" />
<text x="180.0" y="360" text-anchor="middle" font-family="Arial" font-size="10">20.0</text>
<line x1="300.0" y1="60" x2="300.0" y2="340" stroke="#ddd" stroke-dasharray="4" />
<text x="300.0" y="360" text-anchor="middle" font-family="Arial" font-size="10">50.0</text>
<line x1="420.0" y1="60" x2="420.0" y2="340" stroke="#ddd" stroke-dasharray="4" />
<text x="420.0" y="360" text-anchor="middle" font-family="Arial" font-size="10">80.0</text>
<line x1="540.0" y1="60" x2="540.0" y2="340" stroke="#ddd" stroke-dasharray="4" />
<text x="540.0" y="360" text-anchor="middle" font-family="Arial" font-size="10">110.0</text>
<line x1="60" y1="340" x2="540" y2="340" stroke="black" stroke-width="2" />
<line x1="60" y1="60" x2="60" y2="340" stroke="black" stroke-width="2" />
<polyline points="60.0,340.0 64.0,340.0 68.0,332.46515521928893 72.0,332.46515521928893 76.0,332.46515521928893 80.0,325.230417261121 84.0,325.230417261121 88.0,325.230417261121 92.0,318.2600989522469 96.0,318.2600989522469 100.0,311.5240892402376 104.0,311.5240892402376 108.0,311.5240892402376 112.0,305.1535384867842 116.0,305.1535384867842 120.0,298.80813603822986 124.0,298.80813603822986 128.0,292.6301398889396 132.0,292.6301398889396 136.0,286.6025439856359 140.0,286.6025439856359 144.0,280.71033406539834 148.0,280.71033406539834 152.0,274.9401084794476 156.0,274.9401084794476 160.0,269.2799555184876 164.0,269.2799555184876 168.0,263.71911326933537 172.0,263.71911326933537 176.0,258.24776775934737 180.0,258.24776775934737 184.0,252.8570529564194 188.0,252.8570529564194 192.0,247.53888348536225 196.0,247.53888348536225 200.0,242.28567582186042 204.0,237.0905155760969 208.0,237.0905155760969 212.0,231.94699020912842 216.0,231.94699020912842 220.0,226.84924479409375 224.0,226.84924479409375 228.0,221.7905879860087 232.0,221.7905879860087 236.0,216.7670607390909 240.0,216.7670607390909 244.0,211.77308693252016 248.0,211.77308693252016 252.0,206.80309044547627 256.0,201.8531679933851 260.0,201.8531679933851 264.0,197.0387452772248 268.0,197.0387452772248 272.0,192.11447298090656 276.0,192.11447298090656 280.0,187.19744964165454 284.0,187.19744964165454 288.0,182.28265675073064 292.0,182.28265675073064 296.0,177.36619102356067 300.0,177.36619102356067 304.0,172.44470678765256 308.0,172.44470678765256 312.0,167.51262792218603 316.0,167.51262792218603 320.0,167.51262792218603 324.0,162.56716636675102 328.0,162.56716636675102 332.0,157.60386122469134 336.0,157.60386122469134 340.0,152.61880921143293 344.0,152.61880921143293 348.0,147.60699181823753 352.0,147.60699181823753 356.0,147.60699181823753 360.0,142.56506337261314 364.0,142.56506337261314 368.0,137.48800536582138 372.0,137.48800536582138 376.0,132.37191451328826 380.0,132.37191451328826 384.0,132.37191451328826 388.0,127.21232991835757 392.0,127.21232991835757 396.0,122.0031178481272 400.0,122.0031178481272 404.0,122.0031178481272 408.0,116.7409326301048 412.0,116.7409326301048 416.0,116.7409326301048 420.0,111.41964053138838 424.0,111.41964053138838 428.0,111.41964053138838 432.0,106.03366543115757 436.0,106.03366543115757 440.0,106.03366543115757 444.0,100.57743120859234 448.0,100.57743120859234 452.0,100.57743120859234 456.0,95.18086147880311 460.0,95.18086147880311 464.0,95.18086147880311 468.0,89.56738064910823 472.0,89.56738064910823 476.0,89.56738064910823 480.0,83.86412427420811 484.0,83.86412427420811 488.0,83.86412427420811 492.0,83.86412427420811 496.0,78.06440100911851 500.0,78.06440100911851 504.0,78.06440100911851 508.0,72.15928906052716 512.0,72.15928906052716 516.0,72.15928906052716 520.0,72.15928906052716 524.0,66.14098185928577 528.0,66.14098185928577 532.0,66.14098185928577 536.0,66.14098185928577 540.0,60.0" fill="none" stroke="red" stroke-width="2" />
<text x="300.0" y="390" text-anchor="middle" font-family="Arial" font-size="12">Input Temperature (C)</text>
<text x="20" y="200.0" text-anchor="middle" font-family="Arial" font-size="12" transform="rotate(-90 20,200.0)">Interpreted Output Temperature (C)</text>
</svg>