<svg width="600" height="400" xmlns="http://www.w3.org/2000/svg">
<rect width="100%" height="100%" fill="#f9f9f9" />
<text x="300.0" y="30" text-anchor="middle" font-family="Arial" font-size="18" font-weight="bold">V1: Voltage Response</text>
<line x1="60" y1="340.0" x2="540" y2="340.0" stroke="#ddd" stroke-dasharray="4" />
<text x="50" y="345.0" text-anchor="end" font-family="Arial" font-size="10">0.1</text>
<line x1="60" y1="270.0" x2="540" y2="270.0" stroke="#ddd" stroke-dasharray="4" />
<text x="50" y="275.0" text-anchor="end" font-family="Arial" font-size="10">0.5</text>
<line x1="60" y1="200.0" x2="540" y2="200.0" stroke="#ddd" stroke-dasharray="4" />
<text x="50" y="205.0" text-anchor="end" font-family="Arial" font-size="10">0.9</text>
<line x1="60" y1="130.0" x2="540" y2="130.0" stroke="#ddd" stroke-dasharray="4" />
<text x="50" y="135.0" text-anchor="end" font-family="Arial" font-size="10">1.3</text>
<line x1="60" y1="60.0" x2="540" y2="60.0" stroke="#ddd" stroke-dasharray="4" />
<text x="50" y="65.0" text-anchor="end" font-family="Arial" font-size="10">1.7</text>
<line x1="60.0" y1="60" x2="60.0" y2="340" stroke="#ddd" stroke-dasharray="4" />
<text x="60.0" y="360" text-anchor="middle" font-family="Arial" font-size="10">-10.0</text>
<line x1="180.0" y1="60" x2="180.0" y2="340" stroke="#ddd" stroke-dasharray="4" />
<text x="180.0" y="360" text-anchor="middle" font-family="Arial" font-size="10">20.0</text>
<line x1="300.0" y1="60" x2="300.0" y2="340" stroke="#ddd" stroke-dasharray="4" />
<text x="300.0" y="360" text-anchor="middle" font-family="Arial" font-size="10">50.0</text>
<line x1="420.0" y1="60" x2="420.0" y2="340" stroke="#ddd" stroke-dasharray="4" />
<text x="420.0" y="360" text-anchor="middle" font-family="Arial" font-size="10">80.0</text>
<line x1="540.0" y1="60" x2="540.0" y2="340" stroke="#ddd" stroke-dasharray="4" />
<text x="540.0" y="360" text-anchor="middle" font-family="Arial" font-size="10">110.0</text>
<line x1="60" y1="340" x2="540" y2="340" stroke="black" stroke-width="2" />
<line x1="60" y1="60" x2="60" y2="340" stroke="black" stroke-width="2" />
<polyline points="60.0,60.0 64.0,60.0 68.0,63.50037752669397 72.0,67.00075505338793 76.0,70.50113258008196 80.0,70.50113258008196 84.0,73.9997251105869 88.0,77.50010263728092 92.0,81.00048016397483 96.0,84.50085769066885 100.0,88.00123521736282 104.0,91.49982774786778 108.0,95.00020527456175 112.0,98.50058280125577 116.0,102.00096032794974 120.0,105.50133785464374 124.0,108.99993038514864 128.0,112.50030791184264 132.0,116.0006854385366 136.0,119.5010629652306 140.0,122.99965549573554 144.0,126.50003302242953 148.0,130.0004105491235 152.0,133.5007880758175 156.0,140.49975813301643 160.0,144.0001356597104 164.0,147.5005131864044 168.0,151.00089071309836 172.0,154.50126823979232 176.0,157.99986077029726 180.0,161.50023829699126 184.0,165.0006158236852 188.0,171.99958588088415 192.0,175.49996340757815 196.0,179.0003409342721 200.0,182.5003614617283 204.0,186.00038198918446 208.0,189.50040251664063 212.0,193.00024454447788 216.0,196.50026507193408 220.0,200.00028559939025 224.0,207.0003266543026 228.0,207.0003266543026 232.0,214.00018920959604 236.0,217.50020973705222 240.0,221.0002302645084 244.0,221.0002302645084 248.0,224.50025079196456 252.0,228.00027131942073 256.0,231.5002918468769 260.0,235.00013387471418 264.0,238.50015440217032 268.0,242.0001749296265 272.0,245.50019545708273 276.0,249.00021598453887 280.0,252.50023651199507 284.0,252.50023651199507 288.0,256.0002570394512 292.0,259.5000990672885 296.0,263.00011959474466 300.0,266.50014012220083 304.0,266.50014012220083 308.0,270.000160649657 312.0,273.5001811771132 316.0,273.5001811771132 320.0,277.00020170456935 324.0,280.50004373240665 328.0,280.50004373240665 332.0,284.0000642598628 336.0,284.0000642598628 340.0,287.500084787319 344.0,291.00010531477517 348.0,291.00010531477517 352.0,294.50012584223134 356.0,294.50012584223134 360.0,298.0001463696875 364.0,298.0001463696875 368.0,301.49998839752476 372.0,301.49998839752476 376.0,305.00000892498093 380.0,305.00000892498093 384.0,305.00000892498093 388.0,308.5000294524371 392.0,308.5000294524371 396.0,312.0000499798933 400.0,312.0000499798933 404.0,312.0000499798933 408.0,315.50007050734945 412.0,315.50007050734945 416.0,315.50007050734945 420.0,319.0000910348056 424.0,319.0000910348056 428.0,319.0000910348056 432.0,322.5001115622618 436.0,322.5001115622618 440.0,322.5001115622618 444.0,322.5001115622618 448.0,325.9999535900991 452.0,325.9999535900991 456.0,325.9999535900991 460.0,325.9999535900991 464.0,329.49997411755527 468.0,329.49997411755527 472.0,329.49997411755527 476.0,329.49997411755527 480.0,332.99999464501144 484.0,332.99999464501144 488.0,332.99999464501144 492.0,332.99999464501144 496.0,332.99999464501144 500.0,332.99999464501144 504.0,336.5000151724676 508.0,336.5000151724676 512.0,336.5000151724676 516.0,336.5000151724676 520.0,336.5000151724676 524.0,336.5000151724676 528.0,340.0 532.0,340.0 536.0,340.0 540.0,340.0" fill="none" stroke="red" stroke-width="2" />
<text x="300.0" y="390" text-anchor="middle" font-family="Arial" font-size="12">Input Temperature (C)</text>
<text x="20" y="200.0" text-anchor="middle" font-family="Arial" font-size="12" transform="rotate(-90 20,200.0)">Filtered Output Voltage (V)</text>
</svg>