<svg width="600" height="400" xmlns="http://www.w3.org/2000/svg">
<rect width="100%" height="100%" fill="#f9f9f9" />
<text x="300.0" y="30" text-anchor="middle" font-family="Arial" font-size="18" font-weight="bold">V3_CURVEA: Translation Accuracy</text>
<line x1="60" y1="340.0" x2="540" y2="340.0" stroke="#ddd" stroke-dasharray="4" />
<text x="50" y="345.0" text-anchor="end" font-family="Arial" font-size="10">-16.4</text>
<line x1="60" y1="270.0" x2="540" y2="270.0" stroke="#ddd" stroke-dasharray="4" />
<text x="50" y="275.0" text-anchor="end" font-family="Arial" font-size="10">27.9</text>
<line x1="60" y1="200.00000000000003" x2="540" y2="200.00000000000003" stroke="#ddd" stroke-dasharray="4" />
<text x="50" y="205.00000000000003" text-anchor="end" font-family="Arial" font-size="10">72.1</text>
<line x1="60" y1="129.99999999999997" x2="540" y2="129.99999999999997" stroke="#ddd" stroke-dasharray="4" />
<text x="50" y="134.99999999999997" text-anchor="end" font-family="Arial" font-size="10">116.3</text>
<line x1="60" y1="60.0" x2="540" y2="60.0" stroke="#ddd" stroke-dasharray="4" />
<text x="50" y="65.0" text-anchor="end" font-family="Arial" font-size="10">160.5</text>
<line x1="60.0" y1="60" x2="60.0" y2="340" stroke="#ddd" stroke-dasharray="4" />
<text x="60.0" y="360" text-anchor="middle" font-family="Arial" font-size="10">-10.0</text>
<line x1="180.0" y1="60" x2="180.0" y2="340" stroke="#ddd" stroke-dasharray="4" />
<text x="180.0" y="360" text-anchor="middle" font-family="Arial" font-size="10">20.0</text>
<line x1="300.0" y1="60" x2="300.0" y2="340" stroke="#ddd" stroke-dasharray="4" />
<text x="300.0" y="360" text-anchor="middle" font-family="Arial" font-size="10">50.0</text>
<line x1="420.0" y1="60" x2="420.0" y2="340" stroke="#ddd" stroke-dasharray="4" />
<text x="420.0" y="360" text-anchor="middle" font-family="Arial" font-size="10">80.0</text>
<line x1="540.0" y1="60" x2="540.0" y2="340" stroke="#ddd" stroke-dasharray="4" />
<text x="540.0" y="360" text-anchor="middle" font-family="Arial" font-size="10">110.0</text>
<line x1="60" y1="340" x2="540" y2="340" stroke="black" stroke-width="2" />
<line x1="60" y1="60" x2="60" y2="340" stroke="black" stroke-width="2" />
<polyline points="60.0,340.0 64.0,337.866960129208 68.0,335.8379516736865 72.0,333.90014884251195 76.0,332.04294264812995 80.0,330.2573075339646 84.0,327.6967412990468 88.0,326.0591411470374 92.0,324.4708648700003 96.0,322.17107388288946 100.0,320.6872723817969 104.0,318.52723501282577 108.0,317.1267536498084 112.0,315.0789387845584 116.0,312.4357918738322 120.0,310.5105456503151 124.0,308.62806789752034 128.0,306.1762517021883 132.0,304.37546315356116 136.0,302.6030813566837 140.0,300.2782246571872 144.0,297.99046774551095 148.0,296.29492985400765 152.0,294.0565918231624 156.0,292.3914558064414 160.0,290.1851030813567 164.0,288.53801817778765 168.0,286.3482914779745 172.0,284.16157329701997 176.0,282.5208221173639 180.0,280.32856192798556 184.0,278.12711783893343 188.0,276.46736548753836 192.0,274.2388447287583 196.0,271.9886309655762 200.0,270.2837508313013 204.0,267.9835006492067 208.0,265.64778161319947 212.0,263.8691135953384 216.0,261.456914843082 220.0,258.9923045254457 224.0,257.10517148557494 228.0,254.5313044304399 232.0,252.55296576622226 236.0,249.8432403331539 240.0,247.751528010894 244.0,245.60328720271082 248.0,243.39281755708268 252.0,240.33822085695286 256.0,237.9573740380657 260.0,235.49038857396206 264.0,232.928238908066 268.0,230.25984102352982 272.0,227.47316084491877 276.0,224.5534724641353 280.0,221.48430819900562 284.0,218.24524178991038 288.0,215.98014377553284 292.0,212.40285650948476 296.0,208.58045412800456 300.0,205.87627070336003 304.0,201.54938721221143 308.0,198.458371599582 312.0,196.84327200177344 316.0,193.45742154099506 320.0,191.67954523862304 324.0,189.83975678500175 328.0,185.9546505367831 332.0,183.8984070684359 336.0,181.75792507204613 340.0,179.5260791082117 344.0,177.1944769927479 348.0,174.75393482598093 352.0,172.19336859106312 356.0,169.50058586946196 360.0,166.66149412547105 364.0,163.65930899072112 368.0,160.4745542641796 372.0,157.08395351046647 376.0,153.4604300598537 380.0,149.56994014630905 384.0,145.37068119200683 388.0,140.81356683662162 392.0,140.81356683662162 396.0,135.83525984102354 400.0,130.35183836336577 404.0,124.25562909712764 408.0,124.25562909712764 412.0,124.25562909712764 416.0,117.40412325426735 420.0,117.40412325426735 424.0,117.40412325426735 428.0,117.40412325426735 432.0,109.59622510054785 436.0,109.59622510054785 440.0,109.59622510054785 444.0,109.59622510054785 448.0,100.54375019792886 452.0,100.54375019792886 456.0,100.54375019792886 460.0,100.54375019792886 464.0,100.54375019792886 468.0,89.81125502739334 472.0,89.81125502739334 476.0,89.81125502739334 480.0,89.81125502739334 484.0,89.81125502739334 488.0,89.81125502739334 492.0,76.70361338949238 496.0,76.70361338949238 500.0,76.70361338949238 504.0,76.70361338949238 508.0,76.70361338949238 512.0,76.70361338949238 516.0,76.70361338949238 520.0,76.70361338949238 524.0,60.0 528.0,60.0 532.0,60.0 536.0,60.0 540.0,60.0" fill="none" stroke="red" stroke-width="2" />
<text x="300.0" y="390" text-anchor="middle" font-family="Arial" font-size="12">Input Temperature (C)</text>
<text x="20" y="200.0" text-anchor="middle" font-family="Arial" font-size="12" transform="rotate(-90 20,200.0)">Interpreted Output Temperature (C)</text>
</svg>